<svg width="299" height="774" viewBox="0 0 299 774" fill="none" xmlns="http://www.w3.org/2000/svg">
<path fillRule="evenodd" clipRule="evenodd" d="M0 488.656V78.5C0.833333 72.3334 4.69575 60.989 23.5 60.989C43.5 60.989 48.8333 72.6667 48.5 78.5V162.643C48.5 171.813 49.51 181.932 57.0291 187.181C59.8151 189.126 63.176 190.489 67 190.489C79.5 190.489 86 184 86.5 176.5C86.7716 172.425 86.7512 155.669 86.6579 140.324C86.5807 127.623 88.726 112.227 101.031 109.081C102.728 108.647 104.553 108.428 106.5 108.5C108.376 108.569 110.128 108.871 111.753 109.343C123.68 112.809 126 127.466 126 139.885V209.837C126 219.532 126.935 230.406 134.958 235.847C137.713 237.715 141.062 239 145 239C161.5 239 168 230.5 168 224.5V25.3049C168 18.764 168.427 11.8603 172.822 7.01591C176.251 3.23686 181.447 -2.56298e-05 188.5 1.52204e-10C204 5.62669e-05 210.5 8.99993 211 15.5C211.348 20.0262 211.848 104.935 211.972 126.866L211.972 126.908C211.991 130.334 212.011 133.82 213.385 136.958C215.685 142.206 221.036 147.5 232.5 147.5C240.537 147.5 245.95 145.353 249.684 142.459C257.618 136.311 258 124.847 258 114.811V79.2057C258 74.0805 258.157 68.7484 260.827 64.3736C263.77 59.5515 269.036 55.0001 277.5 55.0001C294.5 55.0001 299 67.0001 299 71.5001V490.146C299 502.92 295.941 515.423 290.079 526.772L171.393 756.56C167.817 763.483 163.524 770.864 156.017 772.953C152.999 773.793 149.628 773.952 146.161 772.82C139.508 770.647 135.835 763.871 132.549 757.692L9.37021 526.116C3.21765 514.549 0 501.757 0 488.656ZM34 484.571V407.989C34 402.989 66 347.989 145.5 347.989C191.256 347.989 225.954 366.967 246.724 384.444C259.537 395.224 264.5 411.996 264.5 428.74V484.555C264.5 497.644 261.288 510.534 255.146 522.093L187.322 649.736C185.112 653.897 182.638 657.949 179.272 661.245C166.448 673.8 142.625 685.472 119.361 661.535C115.947 658.023 113.344 653.813 111.045 649.487L43.3538 522.093C37.2118 510.534 34 497.66 34 484.571Z" fill="url(#paint0_linear_232_3877)"/>
<circle cx="87.5" cy="503.489" r="18.5" fill="#8E4BDF"/>
<rect x="123" y="484.989" width="171" height="37" rx="18.5" fill="#8E4BDF"/>
<path d="M107.5 93.7C96.7 93.7 88 85 88 74.2V53.5C88 42.7 96.7 34 107.5 34C118.3 34 127 42.7 127 53.5V74.2C127.1 85 118.3 93.7 107.5 93.7Z" fill="url(#paint1_linear_232_3877)"/>
<defs>
<linearGradient id="paint0_linear_232_3877" x1="149.5" y1="0" x2="149.5" y2="773.626" gradientUnits="userSpaceOnUse">
<stop stopColor="#F24F9D"/>
<stop offset="1" stopColor="#5F4AFF"/>
</linearGradient>
<linearGradient id="paint1_linear_232_3877" x1="107.5" y1="34" x2="107.5" y2="93.7" gradientUnits="userSpaceOnUse">
<stop stopColor="#F24F9D"/>
<stop offset="1" stopColor="#5F4AFF"/>
</linearGradient>
</defs>
</svg>
